<?xml version="1.0" encoding="UTF-8"?><svg xmlns="http://www.w3.org/2000/svg" xmlns:xlink="http://www.w3.org/1999/xlink"
    viewBox="0 0 48 48" version="1.1">
    <g id="surface1">
        <path d="M24 24H4V4h20zm20 0H24v20h20z" fill="#33691E" />
        <path
            d="M7 8h5.2c1.8 0 3.3 1.398 3.3 3.2 0 1.198-.7 2.5-1.898 2.8 1.5.2 2.398 1.398 2.398 2.7 0 2.698-2 3.3-4.3 3.3H7zm2 5h2.5c.898 0 1.7-.398 1.7-1.5 0-.898-.5-1.5-1.7-1.5H9zm0 5.2h2.8c1.302 0 2-.4 2-1.5 0-1.2-.8-1.598-2-1.598H9zM26 28h5.2c1.8 0 3.3 1.398 3.3 3.2 0 1.198-.7 2.5-1.898 2.8 1.5.2 2.398 1.398 2.398 2.7 0 2.698-2 3.3-4.3 3.3H26zm2 5h2.5c.898 0 1.7-.398 1.7-1.5 0-.898-.5-1.5-1.7-1.5H28zm0 5.2h2.8c1.302 0 2-.4 2-1.5 0-1.2-.8-1.598-2-1.598H28zM17 12h2v1.3c.398-.902 1-1.3 2-1.3v2c-1.2 0-2 .5-2 2.2V20h-2zm25 26.5c0 .8.2 1.102.2 1.3h-1.598c-.102-.198-.204-.5-.204-.698-.597.597-1.296.898-2.097.898-1.2 0-2.403-.898-2.403-2.398s1.204-2.204 2.102-2.403l.602-.199c.597-.102 1.296-.3 1.699-.5v-.2c0-.8-.5-1-1.2-1-.902 0-1.203.302-1.203 1.098l-1.5-.097c0-1.801 1.301-2.5 2.704-2.5 1.398 0 2.796.3 2.796 2.5zm-2.5-2l-.602.2c-.398.1-.796.3-.796.8s.398.8.796.8c.5 0 1.204-.3 1.204-1.1v-.9c-.102-.1-.403.098-.602.2z"
            fill="#FFF" />
    </g>
    <metadata>
        <rdf:RDF xmlns:rdf="http://www.w3.org/1999/02/22-rdf-syntax-ns#"
            xmlns:rdfs="http://www.w3.org/2000/01/rdf-schema#" xmlns:dc="http://purl.org/dc/elements/1.1/">
            <rdf:Description about="https://iconscout.com/legal#licenses" dc:title="breaking,bad"
                dc:description="breaking,bad" dc:publisher="Iconscout" dc:date="2017-12-15" dc:format="image/svg+xml"
                dc:language="en">
                <dc:creator>
                    <rdf:Bag>
                        <rdf:li>Icons8</rdf:li>
                    </rdf:Bag>
                </dc:creator>
            </rdf:Description>
        </rdf:RDF>
    </metadata>
</svg>